<svg xmlns="http://www.w3.org/2000/svg" viewBox="0 0 24 24" fill="#ffffff" role="img" aria-hidden="true">
  <path d="M23.21 4.75c-.315-.92-1.078-1.684-2-2-1.295-.55-3.195-.55-3.195-.55H5.985s-1.9 0-3.195.55c-.922.316-1.685 1.08-2 2-1.1 3.181-1.1 8.919 0 12.297.315.92 1.078 1.684 2 2 1.295.55 3.195.55 3.195.55h12.03s1.9 0 3.195-.55c.922-.316 1.685-1.08 2-2 1.1-3.181 1.1-8.919 0-12.297zM12 18.75c-3.728 0-6.75-3.022-6.75-6.75S8.272 5.25 12 5.25s6.75 3.022 6.75 6.75-3.022 6.75-6.75 6.75zm0-2.25c2.485 0 4.5-2.015 4.5-4.5S14.485 7.5 12 7.5 7.5 9.515 7.5 12s2.015 4.5 4.5 4.5z"/>
</svg>
